<svg id="chatbubble" xmlns="http://www.w3.org/2000/svg" viewBox="0 0 104.96 97.53">
  <defs>
    <style>
      .cls-1 {
        fill: none;
        stroke: #000;
        stroke-miterlimit: 10;
        stroke-width: 2px;
      }
    </style>
  </defs>
  <title>chat-bubble-02</title>
  <path id="bubble" class="cls-1" d="M102.74,73.55c7.51-14,12.55-31.86,4-45.3C99.05,16,83,12.18,68.55,12.07c-20.15-.15-41.81,6-53.89,22.12C9.49,41.09,6.38,50.38,9.54,58.4c2.51,6.36,8.55,10.79,15,13S38,73.89,44.79,74.16L21.4,107.9A289.79,289.79,0,0,1,50.75,82,23.62,23.62,0,0,1,57,78.21a24.29,24.29,0,0,1,7.26-1L92.69,76" transform="translate(-7.27 -11.07)"/>
  <path id="line-1" class="cls-1" d="M88.59,39.3c-4.85,1.3-9.51-2.32-14.37-3.63C64.07,32.94,51.88,40.21,43.38,34" transform="translate(-7.27 -11.07)"/>
  <path id="line-2" class="cls-1" d="M84.86,60.56c-6.59-3.7-14.52-3.78-22.07-4-9.48-.32-18.94-1-28.37-2" transform="translate(-7.27 -11.07)"/>
</svg>
